<svg xmlns:dc="http://purl.org/dc/elements/1.1/" xmlns:cc="http://creativecommons.org/ns#" xmlns:rdf="http://www.w3.org/1999/02/22-rdf-syntax-ns#" xmlns:svg="http://www.w3.org/2000/svg" xmlns="http://www.w3.org/2000/svg" xmlns:sodipodi="http://sodipodi.sourceforge.net/DTD/sodipodi-0.dtd" xmlns:inkscape="http://www.inkscape.org/namespaces/inkscape" viewBox="0 0 8.4666667 10.583333625" version="1.1" x="0px" y="0px"><svg:g><svg:path style="color:#000000;font-style:normal;font-variant:normal;font-weight:normal;font-stretch:normal;font-size:medium;line-height:normal;font-family:sans-serif;font-variant-ligatures:normal;font-variant-position:normal;font-variant-caps:normal;font-variant-numeric:normal;font-variant-alternates:normal;font-feature-settings:normal;text-indent:0;text-align:start;text-decoration:none;text-decoration-line:none;text-decoration-style:solid;text-decoration-color:#000000;letter-spacing:normal;word-spacing:normal;text-transform:none;writing-mode:lr-tb;direction:ltr;text-orientation:mixed;dominant-baseline:auto;baseline-shift:baseline;text-anchor:start;white-space:normal;shape-padding:0;clip-rule:nonzero;display:inline;overflow:visible;visibility:visible;opacity:1;isolation:auto;mix-blend-mode:normal;color-interpolation:sRGB;color-interpolation-filters:linearRGB;solid-color:#000000;solid-opacity:1;vector-effect:none;fill:#000000;fill-opacity:1;fill-rule:nonzero;stroke:none;stroke-width:0.52916664;stroke-linecap:round;stroke-linejoin:round;stroke-miterlimit:4;stroke-dasharray:none;stroke-dashoffset:0;stroke-opacity:1;paint-order:stroke fill markers;color-rendering:auto;image-rendering:auto;shape-rendering:auto;text-rendering:auto;enable-background:accumulate" d="m 2.5507474,0.40023529 a 0.26460979,0.26460979 0 0 0 -0.2656178,0.264066 V 1.6838773 H 0.2656153 a 0.26460979,0.26460979 0 0 0 -0.027387,0 A 0.26460979,0.26460979 0 0 0 9.6441858e-8,1.9474273 v 1.525488 c 0,0.552432 0.426029433558142,0.995733 1.021125003558142,1.314132 0.5332571,0.285313 1.2736195,0.457409 2.0706741,0.56069 v -0.77153 A 0.26460979,0.26460979 0 0 1 3.357417,4.3105903 h 1.7538991 a 0.26460979,0.26460979 0 0 1 0.2635488,0.265617 v 0.77153 c 0.7979304,-0.103194 1.5384992,-0.275126 2.0722246,-0.56069 0.5950955,-0.318399 1.0195772,-0.7617 1.0195772,-1.314132 V 1.9474273 A 0.26460979,0.26460979 0 0 0 8.2031152,1.6838773 H 6.1815345 V 0.66430129 a 0.26460979,0.26460979 0 0 0 -0.2635514,-0.264066 z m 0.2635489,0.529683 H 5.6523679 V 1.6838773 H 2.8142963 Z M 3.6209659,4.8397573 v 0.687813 h 1.2247324 v -0.687813 z m 4.5723306,0.09198 c -0.1554956,0.121705 -0.3236198,0.229392 -0.4966097,0.321948 -0.5132255,0.274597 -1.1381687,0.423498 -1.7926552,0.533301 v 0.0021 c -1.3816621,0.202048 -2.0973785,0.207198 -3.3413991,0 v -0.0021 C 1.9087201,5.6771003 1.2843273,5.5280523 0.77152773,5.2536853 0.59905115,5.1614033 0.43074176,5.0545323 0.27543399,4.9332913 v 2.867526 a 0.26460979,0.26460979 0 0 0 0.26355145,0.265616 H 7.9297477 a 0.26460979,0.26460979 0 0 0 0.2635488,-0.265616 z"/></svg:g><text x="0" y="23.4666669" fill="#000000" font-size="5px" font-weight="bold" font-family="'Helvetica Neue', Helvetica, Arial-Unicode, Arial, Sans-serif">Created by Larea</text><text x="0" y="28.4666669" fill="#000000" font-size="5px" font-weight="bold" font-family="'Helvetica Neue', Helvetica, Arial-Unicode, Arial, Sans-serif">from the Noun Project</text></svg>